# File created by Blade
# Date/Time:  Tue Sep 30 19:06:28 2014
#---------------------------------------------------------
:version 1.10
:name HOM
:units
  mass 1.0
  length 1.000000
  angle deg
:documentation
     Acclaim Skeleton File
:root
   axis xyz
   order TX TY TZ RX RY RZ
   position 0.000000 0.000000 0.000000
   orientation 0 0 0
:bonedata
   begin
      id 1
      name Spine_dum
      direction 0.000000 1.000000 0.000000
      length 7.508948
      axis 0.0 0.0 0.0 xyz
   end
   begin
      id 2
      name LeftUpLeg_dum
      direction 1.000000 0.000000 0.000000
      length 3.000560
      axis 0.0 0.0 0.0 xyz
   end
   begin
      id 3
      name RightUpLeg_dum
      direction -1.000000 0.000000 0.000000
      length 3.000560
      axis 0.0 0.0 0.0 xyz
   end
   begin
      id 4
      name Spine
      direction 0.000000 1.000000 0.000000
      length 0.000000
      axis 0.0 0.0 0.0 xyz
      dof rx ry rz
   end
   begin
      id 5
      name Spine_dum1
      direction 0.000000 1.000000 0.000000
      length 13.861154
      axis 0.0 0.0 0.0 xyz
   end
   begin
      id 6
      name Spine_dum2
      direction 0.000000 1.000000 0.000000
      length 8.204781
      axis 0.0 0.0 0.0 xyz
   end
   begin
      id 7
      name Spine_dum3
      direction 0.000000 1.000000 0.000000
      length 8.204781
      axis 0.0 0.0 0.0 xyz
   end
   begin
      id 8
      name Head
      direction 0.000000 1.000000 0.000000
      length 4.527550
      axis 0.0 0.0 0.0 xyz
      dof rx ry rz
   end
   begin
      id 9
      name LeftShoulder
      direction 1.000000 0.000000 0.000000
      length 6.635956
      axis 0.0 0.0 -90.0 xyz
      dof rx ry rz
   end
   begin
      id 10
      name LeftArm
      direction 1.000000 0.000000 0.000000
      length 10.274218
      axis 0.0 0.0 -90.0 xyz
      dof rx ry rz
   end
   begin
      id 11
      name LeftForeArm
      direction 1.000000 0.000000 0.000000
      length 8.522147
      axis 0.0 0.0 -90.0 xyz
      dof ry rz rx
   end
   begin
      id 12
      name LeftHand
      direction 0.000000 0.000000 0.000000
      length 0.000000
      axis 0.0 0.0 -90.0 xyz
      dof rx ry rz
   end
   begin
      id 13
      name LeftHand_dum1
      direction 0.000000 0.000000 0.000000
      length 0.000000
      axis 0.0 0.0 -90.0 xyz
   end
   begin
      id 14
      name LeftHand_dum2
      direction 1.000000 0.000000 0.000000
      length 3.937000
      axis 0.0 0.0 -90.0 xyz
   end
   begin
      id 15
      name LeftHandThumb1
      direction 0.000000 0.000000 1.000000
      length 3.937000
      axis 0.0 0.0 -90.0 xyz
      dof rx rz ry
   end
   begin
      id 16
      name RightShoulder
      direction -1.000000 0.000000 0.000000
      length 6.635956
      axis 0.0 0.0 90.0 xyz
      dof rx ry rz
   end
   begin
      id 17
      name RightArm
      direction -1.000000 0.000000 0.000000
      length 10.274218
      axis 0.0 0.0 90.0 xyz
      dof rx ry rz
   end
   begin
      id 18
      name RightForeArm
      direction -1.000000 0.000000 0.000000
      length 8.522147
      axis 0.0 0.0 90.0 xyz
      dof ry rz rx
   end
   begin
      id 19
      name RightHand
      direction 0.000000 0.000000 0.000000
      length 0.000000
      axis 0.0 0.0 90.0 xyz
      dof rx ry rz
   end
   begin
      id 20
      name RightHand_dum1
      direction 0.000000 0.000000 0.000000
      length 0.000000
      axis 0.0 0.0 90.0 xyz
   end
   begin
      id 21
      name RightHand_dum2
      direction -1.000000 0.000000 0.000000
      length 3.937000
      axis 0.0 0.0 90.0 xyz
   end
   begin
      id 22
      name RightHandThumb1
      direction 0.000000 0.000000 1.000000
      length 3.937000
      axis 0.0 0.0 90.0 xyz
      dof rx rz ry
   end
   begin
      id 23
      name LeftUpLeg
      direction 0.000000 -1.000000 0.000000
      length 16.490845
      axis 0.0 0.0 0.0 xyz
      dof rx ry rz
   end
   begin
      id 24
      name LeftLeg
      direction 0.000000 -1.000000 0.000000
      length 14.556576
      axis 0.0 0.0 0.0 xyz
      dof rx ry rz
   end
   begin
      id 25
      name LeftFoot
      direction 0.000000 -0.258819 0.965926
      length 4.831116
      axis 15.0 0.0 0.0 xyz
      dof rx ry rz
   end
   begin
      id 26
      name LeftToeBase
      direction 0.000000 0.000000 1.000000
      length 2.952750
      axis 0.0 0.0 0.0 xyz
      dof rx ry rz
   end
   begin
      id 27
      name RightUpLeg
      direction 0.000000 -1.000000 0.000000
      length 16.490845
      axis 0.0 0.0 0.0 xyz
      dof rx ry rz
   end
   begin
      id 28
      name RightLeg
      direction 0.000000 -1.000000 0.000000
      length 14.556576
      axis 0.0 0.0 0.0 xyz
      dof rx ry rz
   end
   begin
      id 29
      name RightFoot
      direction 0.000000 -0.258819 0.965926
      length 4.831116
      axis 15.0 0.0 0.0 xyz
      dof rx ry rz
   end
   begin
      id 30
      name RightToeBase
      direction 0.000000 0.000000 1.000000
      length 2.952750
      axis 0.0 0.0 0.0 xyz
      dof rx ry rz
   end
:hierarchy
   begin
      root Spine_dum LeftUpLeg_dum RightUpLeg_dum
      Spine_dum Spine
      LeftUpLeg_dum LeftUpLeg
      RightUpLeg_dum RightUpLeg
      Spine Spine_dum1 Spine_dum2 Spine_dum3
      Spine_dum1 Head
      Spine_dum2 LeftShoulder
      Spine_dum3 RightShoulder
      LeftShoulder LeftArm
      LeftArm LeftForeArm
      LeftForeArm LeftHand
      LeftHand LeftHand_dum1 LeftHand_dum2
      LeftHand_dum1 LeftHandThumb1
      RightShoulder RightArm
      RightArm RightForeArm
      RightForeArm RightHand
      RightHand RightHand_dum1 RightHand_dum2
      RightHand_dum1 RightHandThumb1
      LeftUpLeg LeftLeg
      LeftLeg LeftFoot
      LeftFoot LeftToeBase
      RightUpLeg RightLeg
      RightLeg RightFoot
      RightFoot RightToeBase
   end

# File created by Blade
# Date/Time:  Thu Sep 25 18:48:06 2014
# Frame Rate: 120.000 fps
#------------------------------------------------------
:FULLY-SPECIFIED
:DEGREES
1
root 0.554709 32.766097 1.159222 10.836654 3.390404 -0.474938
Spine -13.281422 3.299527 -0.558946
Head -12.584787 -7.463937 11.453090
LeftShoulder -11.683693 17.345437 28.306408
LeftArm 19.357048 -25.278516 -23.813506
LeftForeArm 10.651185 -0.000000 14.861989
LeftHand -22.174918 -0.000000 -10.708903
LeftHandThumb1 -26.253704 0.000000 33.147579
RightShoulder -20.056028 11.319862 -38.073749
RightArm -1.644259 5.701071 24.638227
RightForeArm -29.520782 -0.000000 13.348359
RightHand -8.127521 -0.000000 16.725610
RightHandThumb1 -24.326973 -0.000000 -32.862282
LeftUpLeg -6.799296 7.122036 4.654601
LeftLeg 0.288898 -0.000000 -0.000000
LeftFoot -10.049087 2.173449 -12.127188
LeftToeBase 10.619660 -0.000000 -0.000000
RightUpLeg -6.272029 -9.477491 -3.190056
RightLeg 2.387464 -0.000000 -0.000000
RightFoot -8.563056 -7.618847 4.216792
RightToeBase 0.422685 -0.000000 -0.000000
2
root 0.554983 32.766419 1.157861 10.837644 3.397762 -0.471567
Spine -13.271792 3.314580 -0.577113
Head -12.566400 -7.539226 11.418530
LeftShoulder -11.680519 17.354100 28.319756
LeftArm 19.387627 -25.295882 -23.824397
LeftForeArm 10.625603 -0.000000 14.891219
LeftHand -22.194381 -0.000000 -10.689320
LeftHandThumb1 -26.253704 0.000000 33.147579
RightShoulder -20.054597 11.317659 -38.047716
RightArm -1.657633 5.692715 24.628626
RightForeArm -29.498769 -0.000000 13.389474
RightHand -8.188897 -0.000000 16.720948
RightHandThumb1 -24.326973 -0.000000 -32.862282
LeftUpLeg -6.802813 7.107669 4.650835
LeftLeg 0.299192 -0.000000 -0.000000
LeftFoot -10.124978 2.234982 -11.968823
LeftToeBase 10.888699 -0.000000 -0.000000
RightUpLeg -6.274056 -9.486409 -3.191950
RightLeg 2.387719 -0.000000 -0.000000
RightFoot -8.559073 -7.625357 4.205008
RightToeBase 0.426727 -0.000000 -0.000000
3
root 0.555678 32.766356 1.155792 10.840901 3.414621 -0.465814
Spine -13.257804 3.299848 -0.582250
Head -12.564044 -7.529548 11.420691
LeftShoulder -11.691430 17.366226 28.327249
LeftArm 19.407721 -25.293711 -23.847053
LeftForeArm 10.700066 -0.000000 14.912189
LeftHand -22.180187 -0.000000 -10.568620
LeftHandThumb1 -26.253704 0.000000 33.147579
RightShoulder -20.055103 11.331685 -38.053176
RightArm -1.648838 5.658466 24.658586
RightForeArm -29.549548 0.000000 13.393453
RightHand -8.223239 -0.000000 16.644713
RightHandThumb1 -24.326973 -0.000000 -32.862282
LeftUpLeg -6.812498 7.098811 4.644147
LeftLeg 0.296991 -0.000000 -0.000000
LeftFoot -10.119653 2.238977 -11.949898
LeftToeBase 10.871169 -0.000000 -0.000000
RightUpLeg -6.281055 -9.500478 -3.195671
RightLeg 2.392620 -0.000000 -0.000000
RightFoot -8.552541 -7.631310 4.210460
RightToeBase 0.361747 -0.000000 -0.000000
4
root 0.556148 32.766794 1.154146 10.841631 3.423193 -0.465351
Spine -13.242799 3.306164 -0.578771
Head -12.559455 -7.530924 11.394834
LeftShoulder -11.691187 17.371063 28.309134
LeftArm 19.421810 -25.317926 -23.837327
LeftForeArm 10.684023 -0.000000 14.926051
LeftHand -22.168872 -0.000000 -10.556133
LeftHandThumb1 -26.253704 0.000000 33.147579
RightShoulder -20.044986 11.356099 -38.009500
RightArm -1.655926 5.689274 24.597994
RightForeArm -29.512613 -0.000000 13.370563
RightHand -8.050146 -0.000000 16.697604
RightHandThumb1 -24.326973 -0.000000 -32.862282
LeftUpLeg -6.812767 7.092456 4.643251
LeftLeg 0.284942 -0.000000 -0.000000
LeftFoot -10.103990 2.245315 -11.921208
LeftToeBase 10.908173 -0.000000 -0.000000
RightUpLeg -6.282385 -9.504368 -3.196349
RightLeg 2.393451 -0.000000 -0.000000
RightFoot -8.565599 -7.621311 4.223321
RightToeBase 0.427554 -0.000000 -0.000000
5
root 0.556582 32.766347 1.152408 10.851426 3.439588 -0.464499
Spine -13.233430 3.284067 -0.581541
Head -12.566007 -7.507843 11.417462
LeftShoulder -11.717033 17.373382 28.313197
LeftArm 19.443570 -25.329375 -23.849411
LeftForeArm 10.651144 0.000000 14.946847
LeftHand -22.205385 0.000000 -10.551873
LeftHandThumb1 -26.253704 0.000000 33.147579
RightShoulder -20.043867 11.353114 -38.025904
RightArm -1.636911 5.680645 24.641292
RightForeArm -29.499033 0.000000 13.370263
RightHand -8.234930 -0.000000 16.561546
RightHandThumb1 -24.326973 -0.000000 -32.862282
LeftUpLeg -6.831292 7.103533 4.639289
LeftLeg 0.290782 -0.000000 -0.000000
LeftFoot -10.104247 2.218077 -11.936620
LeftToeBase 10.886301 -0.000000 -0.000000
RightUpLeg -6.289127 -9.505111 -3.194208
RightLeg 2.384141 -0.000000 -0.000000
RightFoot -8.555014 -7.647120 4.213289
RightToeBase 0.410536 -0.000000 -0.000000
6
root 0.556012 32.766215 1.150574 10.860136 3.452738 -0.471669
Spine -13.228390 3.298348 -0.577452
Head -12.565934 -7.516009 11.413140
LeftShoulder -11.700563 17.357635 28.316623
LeftArm 19.444507 -25.348735 -23.850450
LeftForeArm 10.686377 -0.000000 14.954379
LeftHand -22.149784 -0.000000 -10.563204
LeftHandThumb1 -26.253704 0.000000 33.147579
RightShoulder -20.044733 11.357214 -38.017526
RightArm -1.678033 5.741038 24.631269
RightForeArm -29.594035 -0.000000 13.431825
RightHand -8.250303 0.000000 16.596039
RightHandThumb1 -24.326973 -0.000000 -32.862282
LeftUpLeg -6.844662 7.103613 4.650160
LeftLeg 0.279071 -0.000000 -0.000000
LeftFoot -10.040913 2.143572 -12.102616
LeftToeBase 10.678265 -0.000000 -0.000000
RightUpLeg -6.302592 -9.509512 -3.182350
RightLeg 2.391586 -0.000000 -0.000000
RightFoot -8.564402 -7.654175 4.226596
RightToeBase 0.436778 -0.000000 -0.000000
7
root 0.556097 32.766084 1.149289 10.862517 3.462740 -0.472792
Spine -13.210896 3.282550 -0.573484
Head -12.567928 -7.472170 11.416263
LeftShoulder -11.717477 17.387560 28.299676
LeftArm 19.455307 -25.394512 -23.854417
LeftForeArm 10.641366 0.000000 14.980936
LeftHand -22.195667 -0.000000 -10.533583
LeftHandThumb1 -26.253704 0.000000 33.147579
RightShoulder -20.033266 11.368376 -38.015325
RightArm -1.688396 5.772000 24.642111
RightForeArm -29.653233 -0.000000 13.444164
RightHand -8.282477 0.000000 16.642713
RightHandThumb1 -24.326973 -0.000000 -32.862282
LeftUpLeg -6.872270 7.192219 4.637169
LeftLeg 0.325559 -0.000000 -0.000000
LeftFoot -10.091582 2.109002 -11.898060
LeftToeBase 10.854905 -0.000000 -0.000000
RightUpLeg -6.305237 -9.513040 -3.181947
RightLeg 2.392272 -0.000000 -0.000000
RightFoot -8.567110 -7.652300 4.217747
RightToeBase 0.445731 -0.000000 -0.000000
8
root 0.555957 32.766085 1.146910 10.872548 3.472563 -0.473990
Spine -13.201858 3.292260 -0.576600
Head -12.577867 -7.476847 11.427957
LeftShoulder -11.715703 17.402876 28.296212
LeftArm 19.483169 -25.435022 -23.868077
LeftForeArm 10.635636 -0.000000 14.983606
LeftHand -22.208553 -0.000000 -10.524858
LeftHandThumb1 -26.253704 0.000000 33.147579
RightShoulder -20.044325 11.378548 -38.017917
RightArm -1.693834 5.769643 24.645131
RightForeArm -29.693326 0.000000 13.414750
RightHand -8.158071 -0.000000 16.776463
RightHandThumb1 -24.326973 -0.000000 -32.862282
LeftUpLeg -6.895541 7.206018 4.634163
LeftLeg 0.347796 -0.000000 -0.000000
LeftFoot -10.059793 2.083323 -11.748328
LeftToeBase 10.672638 -0.000000 -0.000000
RightUpLeg -6.322965 -9.509869 -3.176780
RightLeg 2.402233 -0.000000 -0.000000
RightFoot -8.568757 -7.663777 4.223005
RightToeBase 0.417781 -0.000000 -0.000000
9
root 0.557161 32.766091 1.144170 10.890080 3.491134 -0.461646
Spine -13.197650 3.273729 -0.581870
Head -12.589690 -7.458805 11.419275
LeftShoulder -11.735440 17.420309 28.288627
LeftArm 19.505914 -25.498958 -23.901218
LeftForeArm 10.606054 0.000000 14.990272
LeftHand -22.147276 0.000000 -10.536073
LeftHandThumb1 -26.253704 0.000000 33.147579
RightShoulder -20.044633 11.380439 -38.037099
RightArm -1.711051 5.795885 24.676889
RightForeArm -29.693641 -0.000000 13.443589
RightHand -8.214485 -0.000000 16.820970
RightHandThumb1 -24.326973 -0.000000 -32.862282
LeftUpLeg -6.893999 7.100247 4.631640
LeftLeg 0.293614 -0.000000 -0.000000
LeftFoot -10.042782 2.164730 -11.787537
LeftToeBase 10.710326 -0.000000 -0.000000
RightUpLeg -6.344230 -9.526835 -3.187032
RightLeg 2.409843 -0.000000 -0.000000
RightFoot -8.581196 -7.659553 4.231979
RightToeBase 0.458063 -0.000000 -0.000000
10
root 0.557498 32.766436 1.142948 10.893782 3.501278 -0.462481
Spine -13.183927 3.269875 -0.587522
Head -12.592005 -7.450829 11.443394
LeftShoulder -11.731168 17.410658 28.286594
LeftArm 19.495609 -25.477562 -23.881784
LeftForeArm 10.593624 -0.000000 14.998077
LeftHand -22.224861 -0.000000 -10.469453
LeftHandThumb1 -26.253704 0.000000 33.147579
RightShoulder -20.040137 11.379980 -38.018769
RightArm -1.722501 5.821338 24.678187
RightForeArm -29.698821 -0.000000 13.447597
RightHand -8.218014 -0.000000 16.840105
RightHandThumb1 -24.326973 -0.000000 -32.862282
LeftUpLeg -6.900153 7.098369 4.631803
LeftLeg 0.291108 -0.000000 -0.000000
LeftFoot -10.030876 2.147848 -11.798680
LeftToeBase 10.708900 -0.000000 -0.000000
RightUpLeg -6.351326 -9.526563 -3.185100
RightLeg 2.415350 -0.000000 -0.000000
RightFoot -8.575959 -7.673649 4.238293
RightToeBase 0.434086 -0.000000 -0.000000
